# xmcd CD database file
#
# Track frame offsets:
#	150
#	13387
#	27617
#	42031
#	54175
#	65610
#	77926
#	90775
#	105519
#	118072
#	127704
#	140962
#	155886
#	168123
#	180687
#	193147
#	206085
#
# Disc length: 2941 seconds
#
# Revision: 2
# Processed by: cddbd v1.5.2PL0 Copyright (c) Steve Scherf et al.
# Submitted via: CDex 1.81
#
DISCID=ec0b7b11
DTITLE=Billie Holiday - Tell Me More
DYEAR=1955
DGENRE=Popular music
TTITLE0=God bless the child
TTITLE1=Tell me more
TTITLE2=Gloomy Sunday
TTITLE3=Back in your own backyard
TTITLE4=Why did I always depend on you
TTITLE5=How am I to know
TTITLE6=Forget if you can
TTITLE7=I'm yours
TTITLE8=I gotta right to sing the blues
TTITLE9=I'm gonna lock my heart and throw away the key
TTITLE10=Swing, brother, swing
TTITLE11=Lover come back to me
TTITLE12=I've got a date with a dream
TTITLE13=No more
TTITLE14=You're a lucky guy
TTITLE15=You're to lovely to last
TTITLE16=I'm pulling through
EXTD=YEAR: 1955
EXTT0=
EXTT1=
EXTT2=
EXTT3=
EXTT4=
EXTT5=
EXTT6=
EXTT7=
EXTT8=
EXTT9=
EXTT10=
EXTT11=
EXTT12=
EXTT13=
EXTT14=
EXTT15=
EXTT16=
PLAYORDER=
